<svg style="position: absolute; width: 0; height: 0; overflow: hidden;" version="1.1" xmlns="http://www.w3.org/2000/svg" xmlns:xlink="http://www.w3.org/1999/xlink">
<defs>
<symbol id="icon-bookmark" viewBox="0 0 20 20">
<title>bookmark</title>
<path d="M14 2v17l-4-4-4 4v-17c0-0.553 0.585-1.020 1-1h6c0.689-0.020 1 0.447 1 1z"></path>
</symbol>
<symbol id="icon-chevron-thin-right" viewBox="0 0 20 20">
<title>chevron-thin-right</title>
<path d="M13.25 10l-7.141-7.42c-0.268-0.27-0.268-0.707 0-0.979 0.268-0.27 0.701-0.27 0.969 0l7.83 7.908c0.268 0.271 0.268 0.709 0 0.979l-7.83 7.908c-0.268 0.271-0.701 0.27-0.969 0s-0.268-0.707 0-0.979l7.141-7.417z"></path>
</symbol>
<symbol id="icon-aircraft-take-off" viewBox="0 0 20 20">
<title>aircraft-take-off</title>
<path d="M19.87 6.453c0.119 0.257 0.127 1.29-4.884 3.642l-4.913 2.306c-1.71 0.803-4.191 1.859-5.285 2.151-0.766 0.204-1.497-0.316-1.497-0.316s-2.206-1.975-2.792-2.419c-0.585-0.444-0.535-0.67 0.215-0.91 0.467-0.149 3.13 0.493 4.265 0.78 1.339-0.8 2.562-1.486 3.141-1.798-1.396-1.033-4.008-2.962-4.841-3.55-0.799-0.565 0.010-0.768 0.010-0.768 0.368-0.099 1.162-0.228 1.562-0.144 2.721 0.569 7.263 2.071 7.611 2.186 0.832-0.436 2.128-1.092 2.922-1.465 2.075-0.974 4.327-0.037 4.486 0.305z"></path>
</symbol>
<symbol id="icon-chat" viewBox="0 0 20 20">
<title>chat</title>
<path d="M5.8 12.2v-6.2h-3.8c-1.1 0-2 0.9-2 2v6c0 1.1 0.9 2 2 2h1v3l3-3h5c1.1 0 2-0.9 2-2v-1.82c-0.064 0.014-0.132 0.021-0.2 0.021l-7-0.001zM18 1h-9c-1.1 0-2 0.9-2 2v8h7l3 3v-3h1c1.1 0 2-0.899 2-2v-6c0-1.1-0.9-2-2-2z"></path>
</symbol>
<symbol id="icon-home" viewBox="0 0 20 20">
<title>home</title>
<path d="M18.672 11h-1.672v6c0 0.445-0.194 1-1 1h-4v-6h-4v6h-4c-0.806 0-1-0.555-1-1v-6h-1.672c-0.598 0-0.47-0.324-0.060-0.748l8.024-8.032c0.195-0.202 0.451-0.302 0.708-0.312 0.257 0.010 0.513 0.109 0.708 0.312l8.023 8.031c0.411 0.425 0.539 0.749-0.059 0.749z"></path>
</symbol>
<symbol id="icon-key" viewBox="0 0 20 20">
<title>key</title>
<path d="M17.691 4.725c-0.503-2.977-3.22-4.967-6.069-4.441s-5.256 2.816-4.753 5.795c0.107 0.641 0.408 1.644 0.763 2.365l-5.175 7.723c-0.191 0.285-0.299 0.799-0.242 1.141l0.333 1.971c0.058 0.342 0.372 0.572 0.7 0.514l1.516-0.281c0.328-0.059 0.744-0.348 0.924-0.639l2.047-3.311 0.018-0.022 1.386-0.256 2.39-3.879c0.785 0.139 1.912 0.092 2.578-0.031 2.848-0.526 4.087-3.67 3.584-6.649zM15.166 6.252c-0.784 1.17-1.584 0.346-2.703-0.475-1.119-0.818-2.135-1.322-1.352-2.492s2.326-1.455 3.447-0.635c1.12 0.819 1.391 2.432 0.608 3.602z"></path>
</symbol>
<symbol id="icon-location-pin" viewBox="0 0 20 20">
<title>location-pin</title>
<path d="M10 2.009c-2.762 0-5 2.229-5 4.99 0 4.774 5 11 5 11s5-6.227 5-11c0-2.76-2.238-4.99-5-4.99zM10 9.76c-1.492 0-2.7-1.209-2.7-2.7s1.208-2.7 2.7-2.7c1.49 0 2.699 1.209 2.699 2.7s-1.209 2.7-2.699 2.7z"></path>
</symbol>
<symbol id="icon-magnifying-glass" viewBox="0 0 20 20">
<title>magnifying-glass</title>
<path d="M17.545 15.467l-3.779-3.779c0.57-0.935 0.898-2.035 0.898-3.21 0-3.417-2.961-6.377-6.378-6.377s-6.186 2.769-6.186 6.186c0 3.416 2.961 6.377 6.377 6.377 1.137 0 2.2-0.309 3.115-0.844l3.799 3.801c0.372 0.371 0.975 0.371 1.346 0l0.943-0.943c0.371-0.371 0.236-0.84-0.135-1.211zM4.004 8.287c0-2.366 1.917-4.283 4.282-4.283s4.474 2.107 4.474 4.474c0 2.365-1.918 4.283-4.283 4.283s-4.473-2.109-4.473-4.474z"></path>
</symbol>
<symbol id="icon-map" viewBox="0 0 20 20">
<title>map</title>
<path d="M19.447 3.718l-6-3c-0.281-0.141-0.613-0.141-0.895 0l-5.63 2.815-5.606-1.869c-0.306-0.102-0.64-0.051-0.901 0.138s-0.415 0.49-0.415 0.811v13.001c0 0.379 0.214 0.725 0.553 0.894l6 3c0.141 0.070 0.294 0.106 0.447 0.106s0.307-0.035 0.447-0.106l5.63-2.814 5.606 1.869c0.305 0.1 0.64 0.049 0.901-0.139s0.415-0.49 0.415-0.81v-13.002c0.001-0.379-0.213-0.725-0.552-0.894zM8 5.231l4-2v11.763l-4 2v-11.763zM2 4l4 1.333v11.661l-4-2v-10.994zM18 16.227l-4-1.334v-11.662l4 2v10.996z"></path>
</symbol>
<symbol id="icon-star" viewBox="0 0 20 20">
<title>star</title>
<path d="M10 1.3l2.388 6.722h6.412l-5.232 3.948 1.871 6.928-5.439-4.154-5.438 4.154 1.87-6.928-5.233-3.948h6.412l2.389-6.722z"></path>
</symbol>
  <symbol id="dash-board" viewBox="0 0 32 32">
    <title>equalizer</title>
    <path d="M14 4v-0.5c0-0.825-0.675-1.5-1.5-1.5h-5c-0.825 0-1.5 0.675-1.5 1.5v0.5h-6v4h6v0.5c0 0.825 0.675 1.5 1.5 1.5h5c0.825 0 1.5-0.675 1.5-1.5v-0.5h18v-4h-18zM8 8v-4h4v4h-4zM26 13.5c0-0.825-0.675-1.5-1.5-1.5h-5c-0.825 0-1.5 0.675-1.5 1.5v0.5h-18v4h18v0.5c0 0.825 0.675 1.5 1.5 1.5h5c0.825 0 1.5-0.675 1.5-1.5v-0.5h6v-4h-6v-0.5zM20 18v-4h4v4h-4zM14 23.5c0-0.825-0.675-1.5-1.5-1.5h-5c-0.825 0-1.5 0.675-1.5 1.5v0.5h-6v4h6v0.5c0 0.825 0.675 1.5 1.5 1.5h5c0.825 0 1.5-0.675 1.5-1.5v-0.5h18v-4h-18v-0.5zM8 28v-4h4v4h-4z"></path>
  </symbol>
  <symbol id="setting" viewBox="0 0 32 32">
    <title>cogs</title>
    <path d="M11.366 22.564l1.291-1.807-1.414-1.414-1.807 1.291c-0.335-0.187-0.694-0.337-1.071-0.444l-0.365-2.19h-2l-0.365 2.19c-0.377 0.107-0.736 0.256-1.071 0.444l-1.807-1.291-1.414 1.414 1.291 1.807c-0.187 0.335-0.337 0.694-0.443 1.071l-2.19 0.365v2l2.19 0.365c0.107 0.377 0.256 0.736 0.444 1.071l-1.291 1.807 1.414 1.414 1.807-1.291c0.335 0.187 0.694 0.337 1.071 0.444l0.365 2.19h2l0.365-2.19c0.377-0.107 0.736-0.256 1.071-0.444l1.807 1.291 1.414-1.414-1.291-1.807c0.187-0.335 0.337-0.694 0.444-1.071l2.19-0.365v-2l-2.19-0.365c-0.107-0.377-0.256-0.736-0.444-1.071zM7 27c-1.105 0-2-0.895-2-2s0.895-2 2-2 2 0.895 2 2-0.895 2-2 2zM32 12v-2l-2.106-0.383c-0.039-0.251-0.088-0.499-0.148-0.743l1.799-1.159-0.765-1.848-2.092 0.452c-0.132-0.216-0.273-0.426-0.422-0.629l1.219-1.761-1.414-1.414-1.761 1.219c-0.203-0.149-0.413-0.29-0.629-0.422l0.452-2.092-1.848-0.765-1.159 1.799c-0.244-0.059-0.492-0.109-0.743-0.148l-0.383-2.106h-2l-0.383 2.106c-0.251 0.039-0.499 0.088-0.743 0.148l-1.159-1.799-1.848 0.765 0.452 2.092c-0.216 0.132-0.426 0.273-0.629 0.422l-1.761-1.219-1.414 1.414 1.219 1.761c-0.149 0.203-0.29 0.413-0.422 0.629l-2.092-0.452-0.765 1.848 1.799 1.159c-0.059 0.244-0.109 0.492-0.148 0.743l-2.106 0.383v2l2.106 0.383c0.039 0.251 0.088 0.499 0.148 0.743l-1.799 1.159 0.765 1.848 2.092-0.452c0.132 0.216 0.273 0.426 0.422 0.629l-1.219 1.761 1.414 1.414 1.761-1.219c0.203 0.149 0.413 0.29 0.629 0.422l-0.452 2.092 1.848 0.765 1.159-1.799c0.244 0.059 0.492 0.109 0.743 0.148l0.383 2.106h2l0.383-2.106c0.251-0.039 0.499-0.088 0.743-0.148l1.159 1.799 1.848-0.765-0.452-2.092c0.216-0.132 0.426-0.273 0.629-0.422l1.761 1.219 1.414-1.414-1.219-1.761c0.149-0.203 0.29-0.413 0.422-0.629l2.092 0.452 0.765-1.848-1.799-1.159c0.059-0.244 0.109-0.492 0.148-0.743l2.106-0.383zM21 15.35c-2.402 0-4.35-1.948-4.35-4.35s1.948-4.35 4.35-4.35 4.35 1.948 4.35 4.35c0 2.402-1.948 4.35-4.35 4.35z"></path>
  </symbol>
  <symbol id="icon-history" viewBox="0 0 34 32">
    <title>history</title>
    <path d="M20 2c7.732 0 14 6.268 14 14s-6.268 14-14 14v-3c2.938 0 5.701-1.144 7.778-3.222s3.222-4.84 3.222-7.778c0-2.938-1.144-5.701-3.222-7.778s-4.84-3.222-7.778-3.222c-2.938 0-5.701 1.144-7.778 3.222-1.598 1.598-2.643 3.601-3.041 5.778h5.819l-7 8-7-8h5.143c0.971-6.784 6.804-12 13.857-12zM26 14v4h-8v-10h4v6z"></path>
  </symbol>
  <symbol id="icon-business-card" viewBox="0 0 24 24">
    <title>business-card</title>
    <path d="M20 20h-16c-1.654 0-3-1.346-3-3v-10c0-1.654 1.346-3 3-3h16c1.654 0 3 1.346 3 3v10c0 1.654-1.346 3-3 3zM4 6c-0.551 0-1 0.449-1 1v10c0 0.551 0.449 1 1 1h16c0.551 0 1-0.449 1-1v-10c0-0.551-0.449-1-1-1h-16z"></path>
    <path d="M10 15h-4c-0.553 0-1-0.448-1-1s0.447-1 1-1h4c0.553 0 1 0.448 1 1s-0.447 1-1 1z"></path>
    <path d="M10 11h-4c-0.553 0-1-0.448-1-1s0.447-1 1-1h4c0.553 0 1 0.448 1 1s-0.447 1-1 1z"></path>
    <path d="M18 10.5c0 1.105-0.895 2-2 2s-2-0.895-2-2c0-1.105 0.895-2 2-2s2 0.895 2 2z"></path>
    <path d="M16 13.356c-1.562 0-2.5 0.715-2.5 1.429 0 0.357 0.938 0.715 2.5 0.715 1.466 0 2.5-0.357 2.5-0.715 0-0.714-0.98-1.429-2.5-1.429z"></path>
  </symbol>
  <symbol id="icon-user-tie" viewBox="0 0 32 32">
    <title>user-tie</title>
    <path d="M10 6c0-3.314 2.686-6 6-6s6 2.686 6 6c0 3.314-2.686 6-6 6s-6-2.686-6-6zM24.002 14h-1.107l-6.222 12.633 2.327-11.633-3-3-3 3 2.327 11.633-6.222-12.633h-1.107c-3.998 0-3.998 2.687-3.998 6v10h24v-10c0-3.313 0-6-3.998-6z"></path>
  </symbol>
  <symbol id="icon-camera" viewBox="0 0 32 32">
    <title>camera</title>
    <path d="M9.5 19c0 3.59 2.91 6.5 6.5 6.5s6.5-2.91 6.5-6.5-2.91-6.5-6.5-6.5-6.5 2.91-6.5 6.5zM30 8h-7c-0.5-2-1-4-3-4h-8c-2 0-2.5 2-3 4h-7c-1.1 0-2 0.9-2 2v18c0 1.1 0.9 2 2 2h28c1.1 0 2-0.9 2-2v-18c0-1.1-0.9-2-2-2zM16 27.875c-4.902 0-8.875-3.973-8.875-8.875s3.973-8.875 8.875-8.875c4.902 0 8.875 3.973 8.875 8.875s-3.973 8.875-8.875 8.875zM30 14h-4v-2h4v2z"></path>
  </symbol>

  <symbol id="business-card-phone" viewBox="0 0 472.811 472.811">
    <title>business-card-phone</title>
    <path d="M358.75,0H114.061C97.555,0,84.128,13.428,84.128,29.934v412.944c0,16.505,13.428,29.934,29.934,29.934H358.75   c16.506,0,29.934-13.428,29.934-29.934V29.934C388.683,13.428,375.256,0,358.75,0z M99.128,75.236h274.556v312.687H99.128V75.236z    M114.061,15H358.75c8.234,0,14.934,6.699,14.934,14.934v35.302H99.128V29.934C99.128,21.699,105.827,15,114.061,15z    M358.75,457.811H114.061c-8.234,0-14.934-6.699-14.934-14.934v-44.955h274.556v44.955   C373.683,451.112,366.984,457.811,358.75,457.811z"
          fill="#FFFFFF" />
    <path d="m236.406,404.552c-13.545,0-24.564,11.02-24.564,24.565s11.02,24.564 24.564,24.564 24.564-11.02 24.564-24.564-11.019-24.565-24.564-24.565zm0,39.129c-8.031,0-14.564-6.534-14.564-14.564 0-8.031 6.533-14.565 14.564-14.565s14.564,6.534 14.564,14.565c0,8.03-6.533,14.564-14.564,14.564z"
          fill="#FFFFFF" />
    <path d="m202.406,47.645h68c2.762,0 5-2.239 5-5s-2.238-5-5-5h-68c-2.762,0-5,2.239-5,5s2.238,5 5,5z" fill="#FFFFFF" />
    <path d="m184.409,47.645c1.31,0 2.6-0.53 3.53-1.46 0.93-0.94 1.47-2.22 1.47-3.54s-0.54-2.6-1.47-3.54c-0.931-0.93-2.221-1.46-3.53-1.46-1.32,0-2.601,0.53-3.54,1.46-0.93,0.93-1.46,2.22-1.46,3.54s0.53,2.6 1.46,3.54c0.93,0.93 2.22,1.46 3.54,1.46z"
          fill="#FFFFFF" />
  </symbol>

  <symbol id="business-card-emailId" viewBox="0 0 467.211 467.211">
    <title>business-card-emailId</title>
    <path d="m413.917,96.775h-360.622c-6.369,0-11.551,5.181-11.551,11.55v213.182c0,6.369 5.182,11.55 11.551,11.55h360.622c6.368,0 11.55-5.181 11.55-11.55v-213.181c-5.68434e-14-6.369-5.182-11.551-11.55-11.551zm1.55,224.732c0,0.855-0.695,1.55-1.55,1.55h-360.622c-0.855,0-1.551-0.696-1.551-1.55v-213.181c0-0.855 0.695-1.55 1.551-1.55h360.622c0.854,0 1.55,0.696 1.55,1.55v213.181z"
          fill="#FFFFFF" />
    <path d="m459.711,340.558h-11.744v-237.715c0-15.752-12.815-28.568-28.568-28.568h-371.586c-15.753,0-28.568,12.815-28.568,28.568v237.714h-11.745c-4.143,0-7.5,3.358-7.5,7.5v20.605c0,13.384 10.889,24.272 24.272,24.272h418.666c13.384,0 24.272-10.889 24.272-24.272v-20.605c0.001-4.141-3.356-7.499-7.499-7.499zm-425.467-237.715c-2.84217e-14-7.481 6.087-13.568 13.568-13.568h371.586c7.481,0 13.568,6.086 13.568,13.568v237.714h-398.722v-237.714zm177.361,252.715h44v3.922c0,1.755-1.428,3.184-3.184,3.184h-37.633c-1.756,0-3.184-1.428-3.184-3.184v-3.922zm240.607,13.105c0,5.113-4.159,9.272-9.272,9.272h-418.667c-5.113,0-9.272-4.16-9.272-9.272v-13.105h11.744 174.861v3.922c0,7.27 5.914,13.184 13.184,13.184h37.633c7.27,0 13.184-5.914 13.184-13.184v-3.922h174.861 11.744v13.105z"
          fill="#FFFFFF" />
  </symbol>

  <symbol id="business-card-location" viewBox="0 0 512 512">
    <title>business-card-location</title>
    <g>
      <g>
        <path d="M455.139,498.052l-99.132-99.132c-1.532-1.532-3.61-2.392-5.777-2.392h-18.927c-4.512,0-8.17,3.657-8.17,8.17    s3.658,8.17,8.17,8.17h15.542l82.792,82.791H82.362l82.791-82.791h15.542c4.512,0,8.17-3.657,8.17-8.17s-3.658-8.17-8.17-8.17    H161.77c-2.167,0-4.245,0.861-5.777,2.392l-99.132,99.132c-2.337,2.338-3.036,5.851-1.771,8.904    c1.265,3.053,4.244,5.044,7.548,5.044h386.723c3.304,0,6.283-1.99,7.548-5.044C458.175,503.903,457.475,500.39,455.139,498.052z"
              fill="#FFFFFF" />
      </g>
    </g>
    <g>
      <g>
        <path d="M256,0C161.393,0,84.426,76.968,84.426,171.574c0,35.596,10.808,69.742,31.263,98.756l133.641,188.964    c1.532,2.165,4.019,3.452,6.671,3.452c2.653,0,5.14-1.288,6.671-3.452L396.32,270.32c20.448-29.004,31.256-63.15,31.256-98.746    C427.574,76.968,350.607,0,256,0z M382.971,260.895L256,440.427L129.037,260.905c-18.495-26.234-28.271-57.125-28.271-89.331    C100.766,85.978,170.403,16.34,256,16.34s155.234,69.637,155.234,155.234C411.234,203.78,401.458,234.671,382.971,260.895z"
              fill="#FFFFFF" />
      </g>
    </g>
    <g>
      <g>
        <path d="M256,92.596c-43.549,0-78.979,35.429-78.979,78.979c0,14.657,4.073,28.988,11.779,41.442    c2.375,3.836,7.41,5.022,11.247,2.649c3.837-2.375,5.023-7.41,2.649-11.247c-6.107-9.87-9.335-21.225-9.335-32.843    c0-34.539,28.099-62.638,62.638-62.638s62.638,28.099,62.638,62.638S290.539,234.213,256,234.213    c-11.617,0-22.974-3.228-32.843-9.335c-3.839-2.376-8.873-1.187-11.247,2.649s-1.189,8.873,2.649,11.247    c12.454,7.706,26.784,11.779,41.44,11.779c43.549,0,78.979-35.429,78.979-78.979C334.979,128.025,299.549,92.596,256,92.596z"
              fill="#FFFFFF" />
      </g>
    </g>
  </symbol>
</defs>
</svg>
